<svg width="43" height="46" viewBox="0 0 43 46" fill="none" xmlns="http://www.w3.org/2000/svg">
<path d="M16 38C6 41 6 33 2 32M30 44V36.26C30.075 35.3063 29.9462 34.3476 29.622 33.4476C29.2979 32.5476 28.7859 31.7268 28.12 31.04C34.4 30.34 41 27.96 41 17.04C40.9995 14.2477 39.9254 11.5624 38 9.54C38.9117 7.09701 38.8472 4.3967 37.82 2C37.82 2 35.46 1.3 30 4.96C25.416 3.71764 20.584 3.71764 16 4.96C10.54 1.3 8.18 2 8.18 2C7.15275 4.3967 7.08829 7.09701 8 9.54C6.06025 11.5774 4.98505 14.2869 5 17.1C5 27.94 11.6 30.32 17.88 31.1C17.222 31.7799 16.7145 32.5908 16.3906 33.4798C16.0667 34.3689 15.9336 35.3161 16 36.26V44" stroke="#1E1E1E" stroke-width="4" stroke-linecap="round" stroke-linejoin="round"/>
</svg>
